<?xml version="1.0" encoding="utf-8"?>
<!-- Generator: Adobe Illustrator 23.1.0, SVG Export Plug-In . SVG Version: 6.00 Build 0)  -->
<svg version="1.1" id="Logo" xmlns="http://www.w3.org/2000/svg" xmlns:xlink="http://www.w3.org/1999/xlink" x="0px" y="0px"
	 viewBox="0 0 907.1 510.2" style="enable-background:new 0 0 907.1 510.2;" xml:space="preserve">
<style type="text/css">
	.st0{fill:#9D6646;}
</style>
<g>
	<path class="st0" d="M229,234.5c9.7-2.7,16.5-10.4,16.5-19.2c0-7.8-3.1-14.6-10.1-18.2c-8.2-4.2-21.3-4.6-33.5-4.6
		c-22.7,0-41.6,2.2-41.6,2.2v3.4h0.8c1.2,0,6.9,0.3,6.9,5.9v70.5l0,0c0,5.7-7.7,5.9-7.7,5.9v3.4c0,0,36.4,1.4,40.3,1.4
		c13.4,0,23.4-0.5,30.5-2.6c14.4-4.4,17.7-13.4,17.7-23.8C248.7,247.8,239.9,237.4,229,234.5 M204,233h-8.1v-35c0,0,0-0.8,4.1-0.8
		c11.3,0,16.4,8.7,16.4,18.4C216.4,225.3,211,233,204,233 M204.7,236.4c7.2,0,13.2,10.5,13.2,22.8c0,11.9-4.9,21.5-17.5,21.5
		c-3.2,0-4.6-0.7-4.6-0.7v-43.7h8.9V236.4z"/>
	<path class="st0" d="M517.4,274.4L517.4,274.4c0,6-5.8,5.9-5.8,5.9v3.4h41.8v-3.4c0,0-7.7,0-7.7-5.9c0,0,0-21.3,0-21.6
		c0-19.4-10-32.2-25.9-32.2c-10.4,0-13.7,3.9-16.8,8.2V222h-35.6v3.4c0,0,7.7-0.4,7.7,5.8v43.3c0,5.8-7.7,5.8-7.7,5.8v3.4h41.3v-3.4
		c0,0-5.6,0-5.6-5.9v-26.7c0-11.6,3-19.1,7.7-19.1c7.3,0,6.7,12.2,6.7,22.1L517.4,274.4z"/>
	<g>
		<path class="st0" d="M383.2,274.5L383.2,274.5l-0.1-34.3l0,0c-0.8-12.7-14.5-20.5-31.8-20.5c-20.3,0-30.1,5.7-30.1,17.4
			c0,7.2,5.5,13.1,12.2,13.1s12.2-5.9,12.2-13.1c0-5.4-3-10.2-7.6-12.1c1.6-0.5,3.8-1.1,6.2-1.1c7.3,0,11,5.2,11,15.4
			c0,3.8-4.8,8.8-9.8,10.4c-4.8,1.5-9.5,2-9.6,2c-11.6,1.4-17.6,6.9-17.6,16.5c0,9,7.7,16.6,17.6,16.8c6,0.2,15.8-2.2,19.5-5.8v4.5
			h35.5v-3.4C390.9,280.3,383.2,280.3,383.2,274.5 M355.4,269.4c0,5.1-3.2,8.3-5.5,8.3c-5,0-6-4.3-6-12.7c0-7.8,0.7-8.7,6.4-13.4
			c3-2.5,4.4-3.3,5.1-3.6V269.4z"/>
		<path class="st0" d="M617.7,258.7c0,0-2.1,19.8-23.8,22.1c-10.8,1.1-14-7.4-14-15.8c0-6.8,0-13.4,0-13.4h41.5
			c0,0-0.9-30.8-34.7-30.8c-19.1,0-34.7,14.4-34.7,32.1c0,13.8,10.8,35.3,42.3,31.8c24.8-2.7,27.2-26,27.2-26H617.7z M580,247.7v-16
			c0-4,3-7.3,6.7-7.3s6.7,3.2,6.7,7.3v16H580z"/>
		<path class="st0" d="M720.9,238.6c-7.9-1.9-14.2-3.4-14.2-8.8c0-3.7,3.4-5.2,7.4-5.4c0,0,19.9-1.3,23.4,9.9
			c2.4,7.6,2.8,8.4,2.8,8.4h3.5V220h-2.1c0,0-1.1,4-4.8,4c-0.8,0-1.7-0.2-2.7-0.5c-11.4-3.4-19.4-3.2-19.4-3.2
			c-12.5,0-23.5,9.4-23.5,20.2c0,15.1,12.7,19.1,23.9,22.6c8.9,2.8,16.6,5.2,16.6,12.5c0,3.7-4,5.4-7.9,5.4c0,0-21.4,1.1-24.6-9.9
			c-2.8-9.5-3.4-12.5-3.4-12.5h-3.2v26.8h2.1c0,0,1.3-5,5.1-4c3.9,1,7.5,1.9,10.7,2.4c7.6,1.3,12.6,1.2,12.6,1.2
			c13.1,0,24.7-9.4,24.7-20.2C747.9,245.2,732.9,241.5,720.9,238.6"/>
	</g>
	<g>
		<path class="st0" d="M424.1,228.2v-33.4h-35.6v3.4c0,0,7.8-0.3,7.8,5.9v83.2c0,0,9.2-14.3,21.5-8.9c3.1,1.4,9.1,8.2,18.6,7.3
			c17-1.7,29.4-15.2,29.4-32.3C465.9,214.4,430.1,216.6,424.1,228.2 M437.6,269.1c0,6-2.2,11.1-6.8,11.1c-4.8,0-6.7-4.9-6.7-11.1
			v-29.2c0-6,2-11.1,6.8-11.1c4.4,0,6.7,4.9,6.7,11.1V269.1z"/>
		<path class="st0" d="M295.1,283.8v-3.4c0,0-7.7,0-7.7-5.8v-35c0-8.3,5.9-14.8,12.9-14.8c0.2,0,0.3,0,0.5,0
			c-5,1.7-8.6,6.7-8.6,12.5c0,7.2,5.5,13.1,12.2,13.1s12.2-5.9,12.2-13.1c0.1-11.2-9.5-16.6-16.3-16.6c-5,0-9.7,2.6-12.9,7v-5.5
			h-35.6v3.4c0,0,7.7-0.2,7.7,5.9v43.1c0,5.8-7.7,5.8-7.7,5.8v3.4L295.1,283.8L295.1,283.8z"/>
		<path class="st0" d="M665.3,283.8v-3.4c0,0-7.7,0-7.7-5.8v-35.2c0-8.3,5.9-14.8,12.9-14.8c0.2,0-7.9,3.9-8.2,12.6
			c-0.2,7.2,5.5,13.1,12.2,13.1s12.2-5.9,12.2-13.1c0.1-11.2-9.5-16.6-16.3-16.6c-5,0-9.7,2.6-12.9,7V222h-35.6v3.4
			c0,0,7.7-0.2,7.7,5.9v43.3c0,5.8-7.8,5.8-7.8,5.8v3.4L665.3,283.8L665.3,283.8z"/>
	</g>
</g>
</svg>
