<?xml version="1.0" encoding="utf-8"?>
<!-- Generator: Adobe Illustrator 23.1.0, SVG Export Plug-In . SVG Version: 6.00 Build 0)  -->
<svg version="1.1" id="Layer_1" xmlns="http://www.w3.org/2000/svg" xmlns:xlink="http://www.w3.org/1999/xlink" x="0px" y="0px"
	 viewBox="0 0 841.9 595.3" style="enable-background:new 0 0 841.9 595.3;" xml:space="preserve">
<g>
	<path d="M212.2,327.1v10.5h-1.5v-10.5h-3.5v-1.4h8.6v1.4H212.2z"/>
	<path d="M223,337.6v-5.4c0-0.6-0.1-1.1-0.4-1.5c-0.3-0.4-0.8-0.5-1.4-0.5c-0.4,0-0.8,0.1-1.1,0.4c-0.3,0.2-0.6,0.6-0.8,0.9
		c-0.1,0.3-0.2,0.7-0.3,1.1c0,0.4,0,0.8,0,1.1v3.9h-1.4v-12.1h1.4v4.7c0.3-0.4,0.6-0.8,1.1-1c0.5-0.2,0.9-0.3,1.4-0.3
		c1,0,1.7,0.3,2.2,0.8c0.5,0.5,0.7,1.3,0.7,2.3v5.6H223z"/>
	<path d="M234.2,333.8h-6c0,0.4,0.1,0.8,0.2,1.2c0.1,0.4,0.3,0.7,0.6,1c0.4,0.4,0.9,0.6,1.6,0.6c0.7,0,1.2-0.2,1.6-0.6
		c0.1-0.1,0.2-0.3,0.3-0.4c0.1-0.1,0.1-0.3,0.2-0.5h1.4c-0.1,0.4-0.2,0.8-0.4,1.2c-0.2,0.4-0.5,0.7-0.9,0.9c-0.3,0.2-0.6,0.4-1,0.5
		c-0.4,0.1-0.8,0.2-1.2,0.2c-0.6,0-1.1-0.1-1.6-0.3c-0.5-0.2-0.9-0.5-1.2-0.9c-0.4-0.4-0.6-0.9-0.8-1.4c-0.2-0.5-0.3-1.1-0.3-1.7
		c0-0.5,0-1,0.1-1.4c0.1-0.5,0.3-0.9,0.5-1.3c0.3-0.5,0.7-0.9,1.3-1.3c0.5-0.3,1.2-0.5,1.9-0.5c0.5,0,1,0.1,1.5,0.3
		c0.4,0.2,0.8,0.5,1.1,0.8c0.3,0.4,0.6,0.8,0.8,1.3c0.2,0.5,0.3,1.1,0.3,1.6L234.2,333.8z M232.7,332.6c0-0.3,0-0.6-0.1-0.9
		c-0.1-0.3-0.2-0.6-0.4-0.8c-0.2-0.2-0.4-0.4-0.7-0.6c-0.3-0.1-0.6-0.2-1-0.2c-0.4,0-0.7,0.1-1,0.2c-0.3,0.1-0.5,0.3-0.7,0.6
		c-0.2,0.2-0.3,0.5-0.4,0.8c-0.1,0.3-0.1,0.6-0.2,0.9H232.7z"/>
	<path d="M247,334.8c0,0.5-0.1,0.9-0.3,1.2c-0.2,0.3-0.4,0.7-0.7,0.9c-0.3,0.3-0.7,0.5-1.1,0.7c-0.4,0.2-0.9,0.2-1.4,0.2
		c-0.8,0-1.4-0.2-1.9-0.5c-0.5-0.3-0.9-0.7-1.2-1.1c-0.2-0.3-0.4-0.7-0.5-1.2c-0.1-0.5-0.2-1-0.2-1.7c0-0.6,0.1-1.2,0.2-1.7
		c0.1-0.5,0.3-0.9,0.5-1.2c0.3-0.4,0.7-0.8,1.2-1.1c0.5-0.3,1.1-0.5,1.9-0.5c0.5,0,1,0.1,1.4,0.2c0.4,0.2,0.8,0.4,1,0.7
		c0.3,0.3,0.5,0.6,0.7,0.9c0.2,0.4,0.3,0.8,0.3,1.2h-1.4c0-0.3-0.1-0.5-0.2-0.8s-0.2-0.4-0.4-0.6c-0.2-0.2-0.4-0.3-0.6-0.4
		c-0.2-0.1-0.5-0.1-0.8-0.1c-0.3,0-0.6,0.1-0.8,0.2c-0.2,0.1-0.4,0.2-0.6,0.4c-0.3,0.3-0.6,0.7-0.7,1.2c-0.1,0.5-0.2,1-0.2,1.5
		c0,0.5,0.1,1,0.2,1.5c0.1,0.5,0.3,0.9,0.7,1.2c0.2,0.2,0.4,0.3,0.6,0.4c0.2,0.1,0.5,0.2,0.8,0.2c0.3,0,0.6-0.1,0.8-0.2
		c0.3-0.1,0.5-0.2,0.6-0.4c0.2-0.2,0.3-0.3,0.4-0.5s0.2-0.4,0.2-0.7H247z"/>
	<path d="M256.2,333.4c0,0.7-0.1,1.3-0.3,1.9c-0.2,0.6-0.5,1.1-1,1.6c-0.3,0.3-0.7,0.5-1.1,0.7c-0.4,0.2-0.9,0.3-1.4,0.3
		c-0.5,0-1-0.1-1.4-0.3c-0.4-0.2-0.8-0.4-1.1-0.7c-0.5-0.5-0.8-1-1-1.6c-0.2-0.6-0.3-1.2-0.3-1.9c0-0.7,0.1-1.3,0.3-1.9
		c0.2-0.6,0.5-1.1,1-1.6c0.3-0.3,0.7-0.5,1.1-0.7c0.4-0.2,0.9-0.3,1.4-0.3c0.5,0,1,0.1,1.4,0.3c0.4,0.2,0.8,0.4,1.1,0.7
		c0.5,0.5,0.8,1,1,1.6C256.2,332.1,256.2,332.7,256.2,333.4z M254.8,333.4c0-0.5-0.1-1-0.2-1.5c-0.1-0.5-0.3-0.9-0.6-1.2
		c-0.2-0.2-0.4-0.3-0.6-0.4c-0.3-0.1-0.5-0.2-0.9-0.2c-0.3,0-0.6,0.1-0.9,0.2c-0.3,0.1-0.5,0.3-0.6,0.4c-0.3,0.3-0.5,0.7-0.6,1.2
		c-0.1,0.5-0.2,1-0.2,1.5c0,0.5,0.1,1,0.2,1.5c0.1,0.5,0.3,0.9,0.6,1.2c0.2,0.2,0.4,0.3,0.6,0.4c0.3,0.1,0.5,0.2,0.9,0.2
		c0.3,0,0.6-0.1,0.9-0.2c0.3-0.1,0.5-0.3,0.6-0.4c0.3-0.3,0.5-0.7,0.6-1.2C254.7,334.4,254.8,333.9,254.8,333.4z"/>
	<path d="M261.4,337.6c-0.1,0-0.2,0-0.3,0c-0.2,0-0.4,0.1-0.8,0.1c-0.6,0-1.1-0.2-1.4-0.5c-0.3-0.4-0.4-0.9-0.4-1.5v-10.1h1.4v10
		c0,0.3,0.1,0.5,0.2,0.7c0.1,0.1,0.3,0.2,0.6,0.2h0.5c0,0,0.1,0,0.1,0V337.6z"/>
	<path d="M266.3,337.6c-0.1,0-0.2,0-0.3,0c-0.2,0-0.4,0.1-0.8,0.1c-0.6,0-1.1-0.2-1.4-0.5c-0.3-0.4-0.4-0.9-0.4-1.5v-10.1h1.4v10
		c0,0.3,0.1,0.5,0.2,0.7c0.1,0.1,0.3,0.2,0.6,0.2h0.5c0,0,0.1,0,0.1,0V337.6z"/>
	<path d="M275.6,337.5c-0.2,0.1-0.3,0.1-0.5,0.2c-0.1,0-0.3,0-0.5,0c-0.4,0-0.7-0.1-0.9-0.4c-0.2-0.3-0.3-0.6-0.3-0.9h0
		c-0.2,0.4-0.6,0.8-1.1,1c-0.5,0.3-1,0.4-1.6,0.4c-0.5,0-0.9-0.1-1.3-0.2c-0.4-0.2-0.7-0.3-0.9-0.6c-0.2-0.2-0.4-0.5-0.5-0.8
		c-0.1-0.3-0.2-0.6-0.2-1c0-0.3,0-0.6,0.1-0.9c0.1-0.3,0.3-0.6,0.5-0.8c0.2-0.3,0.5-0.5,0.9-0.6c0.4-0.2,0.9-0.3,1.4-0.3l2.6-0.2
		v-0.6c0-0.2,0-0.4-0.1-0.7c0-0.2-0.2-0.4-0.4-0.6c-0.1-0.1-0.3-0.2-0.5-0.3c-0.2-0.1-0.5-0.1-0.8-0.1c-0.4,0-0.7,0-1,0.1
		c-0.2,0.1-0.4,0.2-0.6,0.4c-0.3,0.3-0.4,0.6-0.4,1h-1.4c0-0.4,0.1-0.7,0.2-1c0.1-0.3,0.3-0.5,0.5-0.8c0.3-0.3,0.7-0.5,1.1-0.7
		c0.5-0.2,1-0.2,1.5-0.2c0.8,0,1.5,0.2,2,0.5c0.5,0.3,0.8,0.7,1,1.2c0.2,0.4,0.3,0.8,0.3,1.3v4.1c0,0.2,0,0.4,0.1,0.5
		c0.1,0.1,0.2,0.1,0.3,0.1c0,0,0.1,0,0.1,0c0,0,0.1,0,0.1,0l0.1,0V337.5z M273.3,333.5l-2.3,0.1c-0.2,0-0.4,0-0.7,0.1
		c-0.2,0.1-0.4,0.2-0.6,0.3c-0.2,0.1-0.3,0.3-0.4,0.5c-0.1,0.2-0.2,0.4-0.2,0.7c0,0.4,0.1,0.7,0.4,1c0.3,0.3,0.7,0.4,1.3,0.4
		c0.3,0,0.6-0.1,0.9-0.2s0.6-0.3,0.8-0.5c0.3-0.3,0.4-0.6,0.5-0.9c0.1-0.3,0.2-0.7,0.2-1V333.5z"/>
	<path d="M285.3,333.4c0,0.7-0.1,1.4-0.3,2c-0.2,0.6-0.5,1.1-0.9,1.5c-0.3,0.3-0.6,0.5-1,0.7c-0.4,0.2-0.9,0.2-1.4,0.2
		c-0.5,0-1-0.1-1.4-0.3c-0.5-0.2-0.8-0.6-1.1-1l-0.1,1.1h-1.3v-12.1h1.4v4.6c0.1-0.2,0.3-0.4,0.4-0.5c0.2-0.2,0.4-0.3,0.6-0.4
		c0.2-0.1,0.5-0.2,0.7-0.2c0.2-0.1,0.5-0.1,0.7-0.1c0.5,0,0.9,0.1,1.3,0.2c0.4,0.2,0.7,0.4,1,0.6c0.4,0.4,0.7,0.9,1,1.6
		C285.2,332,285.3,332.7,285.3,333.4z M283.9,333.4c0-0.4,0-0.8-0.1-1.2c-0.1-0.4-0.2-0.7-0.4-1c-0.2-0.3-0.4-0.6-0.7-0.8
		c-0.3-0.2-0.7-0.3-1.2-0.3c-0.3,0-0.6,0.1-0.8,0.2s-0.4,0.2-0.6,0.4c-0.4,0.3-0.6,0.7-0.7,1.2c-0.1,0.5-0.2,1-0.2,1.5
		s0.1,1,0.2,1.5c0.1,0.5,0.4,0.9,0.7,1.2c0.2,0.2,0.4,0.3,0.6,0.4c0.2,0.1,0.5,0.2,0.8,0.2c0.5,0,0.9-0.1,1.2-0.3
		c0.3-0.2,0.6-0.4,0.7-0.8c0.2-0.3,0.3-0.7,0.4-1C283.8,334.2,283.9,333.8,283.9,333.4z"/>
	<path d="M294.7,333.4c0,0.7-0.1,1.3-0.3,1.9c-0.2,0.6-0.5,1.1-1,1.6c-0.3,0.3-0.7,0.5-1.1,0.7c-0.4,0.2-0.9,0.3-1.4,0.3
		c-0.5,0-1-0.1-1.4-0.3c-0.4-0.2-0.8-0.4-1.1-0.7c-0.5-0.5-0.8-1-1-1.6c-0.2-0.6-0.3-1.2-0.3-1.9c0-0.7,0.1-1.3,0.3-1.9
		c0.2-0.6,0.5-1.1,1-1.6c0.3-0.3,0.7-0.5,1.1-0.7c0.4-0.2,0.9-0.3,1.4-0.3c0.5,0,1,0.1,1.4,0.3c0.4,0.2,0.8,0.4,1.1,0.7
		c0.5,0.5,0.8,1,1,1.6C294.6,332.1,294.7,332.7,294.7,333.4z M293.2,333.4c0-0.5-0.1-1-0.2-1.5c-0.1-0.5-0.3-0.9-0.6-1.2
		c-0.2-0.2-0.4-0.3-0.6-0.4c-0.3-0.1-0.5-0.2-0.9-0.2c-0.3,0-0.6,0.1-0.9,0.2c-0.3,0.1-0.5,0.3-0.6,0.4c-0.3,0.3-0.5,0.7-0.6,1.2
		c-0.1,0.5-0.2,1-0.2,1.5c0,0.5,0.1,1,0.2,1.5c0.1,0.5,0.3,0.9,0.6,1.2c0.2,0.2,0.4,0.3,0.6,0.4c0.3,0.1,0.5,0.2,0.9,0.2
		c0.3,0,0.6-0.1,0.9-0.2c0.3-0.1,0.5-0.3,0.6-0.4c0.3-0.3,0.5-0.7,0.6-1.2C293.2,334.4,293.2,333.9,293.2,333.4z"/>
	<path d="M301.7,330.5c-0.1,0-0.3,0-0.4,0c-0.1,0-0.3,0-0.4,0c-0.3,0-0.6,0.1-0.9,0.2c-0.3,0.1-0.5,0.3-0.7,0.5
		c-0.2,0.2-0.3,0.4-0.4,0.6s-0.2,0.4-0.2,0.7c-0.1,0.2-0.1,0.5-0.1,0.7c0,0.2,0,0.5,0,0.7v3.8h-1.4v-8.5h1.3l0.1,1.5
		c0.2-0.5,0.6-0.9,1-1.2c0.5-0.3,1-0.4,1.5-0.4c0.2,0,0.4,0,0.7,0V330.5z"/>
	<path d="M310.5,337.5c-0.2,0.1-0.3,0.1-0.5,0.2c-0.1,0-0.3,0-0.5,0c-0.4,0-0.7-0.1-0.9-0.4c-0.2-0.3-0.3-0.6-0.3-0.9h0
		c-0.2,0.4-0.6,0.8-1.1,1c-0.5,0.3-1,0.4-1.6,0.4c-0.5,0-0.9-0.1-1.3-0.2c-0.4-0.2-0.7-0.3-0.9-0.6c-0.2-0.2-0.4-0.5-0.5-0.8
		c-0.1-0.3-0.2-0.6-0.2-1c0-0.3,0-0.6,0.1-0.9c0.1-0.3,0.3-0.6,0.5-0.8c0.2-0.3,0.5-0.5,0.9-0.6c0.4-0.2,0.9-0.3,1.4-0.3l2.6-0.2
		v-0.6c0-0.2,0-0.4-0.1-0.7c-0.1-0.2-0.2-0.4-0.4-0.6c-0.1-0.1-0.3-0.2-0.5-0.3c-0.2-0.1-0.5-0.1-0.8-0.1c-0.4,0-0.7,0-1,0.1
		c-0.2,0.1-0.4,0.2-0.6,0.4c-0.3,0.3-0.4,0.6-0.4,1h-1.4c0-0.4,0.1-0.7,0.2-1c0.1-0.3,0.3-0.5,0.5-0.8c0.3-0.3,0.7-0.5,1.1-0.7
		c0.5-0.2,1-0.2,1.5-0.2c0.8,0,1.5,0.2,2,0.5c0.5,0.3,0.8,0.7,1,1.2c0.2,0.4,0.3,0.8,0.3,1.3v4.1c0,0.2,0,0.4,0.1,0.5
		c0.1,0.1,0.2,0.1,0.3,0.1c0,0,0.1,0,0.1,0c0,0,0.1,0,0.1,0l0.1,0V337.5z M308.2,333.5l-2.3,0.1c-0.2,0-0.4,0-0.6,0.1
		c-0.2,0.1-0.4,0.2-0.6,0.3c-0.2,0.1-0.3,0.3-0.4,0.5c-0.1,0.2-0.2,0.4-0.2,0.7c0,0.4,0.1,0.7,0.4,1c0.3,0.3,0.7,0.4,1.3,0.4
		c0.3,0,0.6-0.1,0.9-0.2s0.6-0.3,0.8-0.5c0.3-0.3,0.4-0.6,0.6-0.9c0.1-0.3,0.2-0.7,0.2-1V333.5z"/>
	<path d="M317.1,337.5c-0.2,0.1-0.4,0.1-0.7,0.2c-0.3,0-0.6,0.1-1,0.1c-0.5,0-0.8-0.1-1.1-0.2s-0.5-0.3-0.7-0.5
		c-0.2-0.2-0.3-0.5-0.4-0.7c-0.1-0.3-0.1-0.6-0.1-0.8v-5.1h-1.6v-1.2h1.6V327l1.4-0.3v2.5h2.5v1.2h-2.5v4.9c0,0.4,0.1,0.7,0.3,0.9
		c0.2,0.2,0.5,0.3,0.9,0.3c0.2,0,0.3,0,0.5,0c0.2,0,0.3,0,0.5,0c0.2,0,0.3-0.1,0.5-0.1V337.5z"/>
	<path d="M319,327.2v-1.7h1.7v1.7H319z M319.1,337.6v-8.5h1.5v8.5H319.1z"/>
	<path d="M327,337.6h-1.5l-3.1-8.5h1.5l2.4,6.8l2.4-6.8h1.4L327,337.6z"/>
	<path d="M338.6,333.8h-6c0,0.4,0.1,0.8,0.2,1.2c0.1,0.4,0.3,0.7,0.6,1c0.4,0.4,0.9,0.6,1.6,0.6c0.7,0,1.2-0.2,1.6-0.6
		c0.1-0.1,0.2-0.3,0.3-0.4c0.1-0.1,0.1-0.3,0.2-0.5h1.4c-0.1,0.4-0.2,0.8-0.4,1.2c-0.2,0.4-0.5,0.7-0.9,0.9c-0.3,0.2-0.6,0.4-1,0.5
		c-0.4,0.1-0.8,0.2-1.2,0.2c-0.6,0-1.1-0.1-1.6-0.3c-0.5-0.2-0.9-0.5-1.2-0.9c-0.4-0.4-0.6-0.9-0.8-1.4c-0.2-0.5-0.3-1.1-0.3-1.7
		c0-0.5,0-1,0.2-1.4c0.1-0.5,0.3-0.9,0.5-1.3c0.3-0.5,0.7-0.9,1.3-1.3c0.5-0.3,1.2-0.5,1.9-0.5c0.5,0,1,0.1,1.5,0.3
		c0.4,0.2,0.8,0.5,1.1,0.8c0.3,0.4,0.6,0.8,0.8,1.3c0.2,0.5,0.3,1.1,0.3,1.6L338.6,333.8z M337.1,332.6c0-0.3,0-0.6-0.1-0.9
		c-0.1-0.3-0.2-0.6-0.4-0.8c-0.2-0.2-0.4-0.4-0.7-0.6c-0.3-0.1-0.6-0.2-1-0.2c-0.4,0-0.7,0.1-1,0.2c-0.3,0.1-0.5,0.3-0.7,0.6
		c-0.2,0.2-0.3,0.5-0.4,0.8c-0.1,0.3-0.1,0.6-0.2,0.9H337.1z"/>
	<path d="M350.3,337.6v-5.4c0-0.6-0.1-1.1-0.4-1.5c-0.3-0.4-0.8-0.5-1.4-0.5c-0.4,0-0.8,0.1-1.1,0.4c-0.3,0.2-0.6,0.6-0.8,0.9
		c-0.1,0.3-0.2,0.7-0.3,1.1c0,0.4,0,0.8,0,1.1v3.9h-1.4v-8.5h1.2l0.1,1.3c0.1-0.2,0.3-0.5,0.5-0.6c0.2-0.2,0.4-0.3,0.6-0.5
		c0.2-0.1,0.5-0.2,0.7-0.3c0.3-0.1,0.5-0.1,0.7-0.1c1,0,1.7,0.3,2.2,0.8c0.5,0.5,0.7,1.3,0.7,2.3v5.6H350.3z"/>
	<path d="M361.5,333.8h-6c0,0.4,0.1,0.8,0.2,1.2c0.1,0.4,0.3,0.7,0.6,1c0.4,0.4,0.9,0.6,1.6,0.6c0.7,0,1.2-0.2,1.6-0.6
		c0.1-0.1,0.2-0.3,0.3-0.4c0.1-0.1,0.1-0.3,0.2-0.5h1.4c-0.1,0.4-0.2,0.8-0.4,1.2c-0.2,0.4-0.5,0.7-0.9,0.9c-0.3,0.2-0.6,0.4-1,0.5
		c-0.4,0.1-0.8,0.2-1.2,0.2c-0.6,0-1.1-0.1-1.6-0.3c-0.5-0.2-0.9-0.5-1.2-0.9c-0.4-0.4-0.6-0.9-0.8-1.4c-0.2-0.5-0.3-1.1-0.3-1.7
		c0-0.5,0-1,0.2-1.4c0.1-0.5,0.3-0.9,0.5-1.3c0.3-0.5,0.7-0.9,1.3-1.3c0.5-0.3,1.2-0.5,1.9-0.5c0.5,0,1,0.1,1.5,0.3
		c0.4,0.2,0.8,0.5,1.1,0.8c0.3,0.4,0.6,0.8,0.8,1.3c0.2,0.5,0.3,1.1,0.3,1.6L361.5,333.8z M360,332.6c0-0.3,0-0.6-0.1-0.9
		c-0.1-0.3-0.2-0.6-0.4-0.8c-0.2-0.2-0.4-0.4-0.7-0.6c-0.3-0.1-0.6-0.2-1-0.2c-0.4,0-0.7,0.1-1,0.2c-0.3,0.1-0.5,0.3-0.7,0.6
		c-0.2,0.2-0.3,0.5-0.4,0.8c-0.1,0.3-0.1,0.6-0.2,0.9H360z"/>
	<path d="M368.2,337.5c-0.2,0.1-0.4,0.1-0.7,0.2c-0.3,0-0.6,0.1-1,0.1c-0.5,0-0.8-0.1-1.1-0.2s-0.5-0.3-0.7-0.5
		c-0.2-0.2-0.3-0.5-0.4-0.7c-0.1-0.3-0.1-0.6-0.1-0.8v-5.1h-1.6v-1.2h1.6V327l1.4-0.3v2.5h2.5v1.2h-2.5v4.9c0,0.4,0.1,0.7,0.3,0.9
		c0.2,0.2,0.5,0.3,0.9,0.3c0.2,0,0.3,0,0.5,0c0.2,0,0.3,0,0.5,0c0.2,0,0.3-0.1,0.5-0.1V337.5z"/>
	<path d="M378.7,337.6h-1.4l-2.2-6.5l-2.3,6.5h-1.4l-2.2-8.5h1.4l1.6,6.4l2.2-6.3h1.2l2.1,6.3l1.6-6.4h1.4L378.7,337.6z"/>
	<path d="M389.9,333.4c0,0.7-0.1,1.3-0.3,1.9s-0.5,1.1-1,1.6c-0.3,0.3-0.7,0.5-1.1,0.7c-0.4,0.2-0.9,0.3-1.4,0.3
		c-0.5,0-1-0.1-1.4-0.3c-0.4-0.2-0.8-0.4-1.1-0.7c-0.5-0.5-0.8-1-1-1.6s-0.3-1.2-0.3-1.9c0-0.7,0.1-1.3,0.3-1.9
		c0.2-0.6,0.5-1.1,1-1.6c0.3-0.3,0.7-0.5,1.1-0.7c0.4-0.2,0.9-0.3,1.4-0.3c0.5,0,1,0.1,1.4,0.3c0.4,0.2,0.8,0.4,1.1,0.7
		c0.5,0.5,0.8,1,1,1.6C389.8,332.1,389.9,332.7,389.9,333.4z M388.4,333.4c0-0.5-0.1-1-0.2-1.5c-0.1-0.5-0.3-0.9-0.6-1.2
		c-0.2-0.2-0.4-0.3-0.6-0.4c-0.3-0.1-0.5-0.2-0.9-0.2c-0.3,0-0.6,0.1-0.9,0.2c-0.3,0.1-0.5,0.3-0.6,0.4c-0.3,0.3-0.5,0.7-0.6,1.2
		c-0.1,0.5-0.2,1-0.2,1.5c0,0.5,0.1,1,0.2,1.5c0.1,0.5,0.3,0.9,0.6,1.2c0.2,0.2,0.4,0.3,0.6,0.4c0.3,0.1,0.5,0.2,0.9,0.2
		c0.3,0,0.6-0.1,0.9-0.2c0.3-0.1,0.5-0.3,0.6-0.4c0.3-0.3,0.5-0.7,0.6-1.2C388.4,334.4,388.4,333.9,388.4,333.4z"/>
	<path d="M397,330.5c-0.1,0-0.3,0-0.4,0c-0.1,0-0.3,0-0.4,0c-0.3,0-0.6,0.1-0.9,0.2c-0.3,0.1-0.5,0.3-0.7,0.5
		c-0.2,0.2-0.3,0.4-0.4,0.6s-0.2,0.4-0.2,0.7c0,0.2-0.1,0.5-0.1,0.7c0,0.2,0,0.5,0,0.7v3.8h-1.4v-8.5h1.3l0.1,1.5
		c0.2-0.5,0.6-0.9,1-1.2c0.5-0.3,1-0.4,1.5-0.4c0.2,0,0.4,0,0.7,0V330.5z"/>
	<path d="M404.5,337.6l-2.6-4.1l-1.6,1.8v2.3h-1.4v-12.1h1.4v7.9l3.8-4.3h1.7l-3,3.4l3.3,5.1H404.5z"/>
	<path d="M416.3,326.7c-0.2,0-0.4,0-0.6-0.1c-0.2,0-0.5-0.1-0.8-0.1c-0.4,0-0.7,0.1-0.9,0.3c-0.2,0.2-0.3,0.5-0.3,0.8v1.4h2.4v1.2
		h-2.4v7.3h-1.4v-7.3h-1.5v-1.2h1.5v-1.5c0-0.3,0.1-0.6,0.2-0.9c0.1-0.3,0.3-0.5,0.5-0.7c0.2-0.2,0.5-0.4,0.8-0.5
		c0.3-0.1,0.6-0.2,1-0.2c0.3,0,0.6,0,0.8,0c0.3,0,0.5,0.1,0.7,0.1V326.7z"/>
	<path d="M424.5,333.4c0,0.7-0.1,1.3-0.3,1.9s-0.5,1.1-1,1.6c-0.3,0.3-0.7,0.5-1.1,0.7c-0.4,0.2-0.9,0.3-1.4,0.3
		c-0.5,0-1-0.1-1.4-0.3c-0.4-0.2-0.8-0.4-1.1-0.7c-0.5-0.5-0.8-1-1-1.6c-0.2-0.6-0.3-1.2-0.3-1.9c0-0.7,0.1-1.3,0.3-1.9
		c0.2-0.6,0.5-1.1,1-1.6c0.3-0.3,0.7-0.5,1.1-0.7c0.4-0.2,0.9-0.3,1.4-0.3c0.5,0,1,0.1,1.4,0.3c0.4,0.2,0.8,0.4,1.1,0.7
		c0.5,0.5,0.8,1,1,1.6C424.5,332.1,424.5,332.7,424.5,333.4z M423.1,333.4c0-0.5-0.1-1-0.2-1.5c-0.1-0.5-0.3-0.9-0.6-1.2
		c-0.2-0.2-0.4-0.3-0.6-0.4c-0.3-0.1-0.5-0.2-0.9-0.2c-0.3,0-0.6,0.1-0.9,0.2c-0.3,0.1-0.5,0.3-0.6,0.4c-0.3,0.3-0.5,0.7-0.6,1.2
		c-0.1,0.5-0.2,1-0.2,1.5c0,0.5,0.1,1,0.2,1.5c0.1,0.5,0.3,0.9,0.6,1.2c0.2,0.2,0.4,0.3,0.6,0.4c0.3,0.1,0.5,0.2,0.9,0.2
		c0.3,0,0.6-0.1,0.9-0.2c0.3-0.1,0.5-0.3,0.6-0.4c0.3-0.3,0.5-0.7,0.6-1.2C423,334.4,423.1,333.9,423.1,333.4z"/>
	<path d="M431.6,330.5c-0.1,0-0.3,0-0.4,0c-0.1,0-0.3,0-0.4,0c-0.3,0-0.6,0.1-0.9,0.2c-0.3,0.1-0.5,0.3-0.7,0.5
		c-0.2,0.2-0.3,0.4-0.4,0.6s-0.2,0.4-0.2,0.7c0,0.2-0.1,0.5-0.1,0.7c0,0.2,0,0.5,0,0.7v3.8H427v-8.5h1.3l0.1,1.5
		c0.2-0.5,0.6-0.9,1-1.2c0.5-0.3,1-0.4,1.5-0.4c0.2,0,0.4,0,0.7,0V330.5z"/>
	<path d="M444.8,333.4c0,0.7-0.1,1.4-0.3,2.1c-0.2,0.6-0.5,1.2-1,1.6c-0.3,0.3-0.6,0.5-1,0.6c-0.4,0.2-0.8,0.2-1.3,0.2
		c-0.2,0-0.5,0-0.7-0.1s-0.5-0.1-0.7-0.2c-0.2-0.1-0.4-0.2-0.6-0.4c-0.2-0.2-0.3-0.3-0.4-0.5v4.6h-1.4v-12.1h1.3l0.1,1.1
		c0.2-0.4,0.6-0.8,1.1-1c0.5-0.2,1-0.3,1.4-0.3c0.5,0,1,0.1,1.4,0.2c0.4,0.2,0.7,0.4,1,0.7c0.4,0.4,0.7,0.9,0.9,1.5
		C444.7,332,444.8,332.7,444.8,333.4z M443.3,333.4c0-0.4,0-0.8-0.1-1.2c-0.1-0.4-0.2-0.7-0.4-1c-0.2-0.3-0.4-0.6-0.7-0.8
		c-0.3-0.2-0.7-0.3-1.2-0.3c-0.3,0-0.6,0.1-0.8,0.2c-0.2,0.1-0.4,0.2-0.6,0.4c-0.4,0.3-0.6,0.7-0.7,1.2c-0.1,0.5-0.2,1-0.2,1.5
		s0.1,1,0.2,1.5c0.1,0.5,0.4,0.9,0.7,1.2c0.2,0.2,0.4,0.3,0.6,0.4c0.2,0.1,0.5,0.2,0.8,0.2c0.5,0,0.9-0.1,1.2-0.3
		c0.3-0.2,0.6-0.4,0.7-0.8s0.3-0.7,0.4-1C443.3,334.2,443.3,333.8,443.3,333.4z"/>
	<path d="M452.7,337.6l-0.1-1.3c-0.2,0.5-0.6,0.9-1,1.1c-0.5,0.3-1,0.4-1.5,0.4c-1,0-1.7-0.3-2.2-0.8c-0.5-0.5-0.7-1.3-0.7-2.3v-5.6
		h1.4v5.4c0,0.6,0.1,1.1,0.4,1.5c0.3,0.4,0.7,0.5,1.4,0.5c0.3,0,0.5-0.1,0.8-0.2c0.2-0.1,0.4-0.3,0.6-0.5c0.3-0.3,0.5-0.6,0.6-1.1
		c0.1-0.4,0.2-0.9,0.2-1.3v-4.4h1.4v8.5H452.7z"/>
	<path d="M461.6,330.5c-0.1,0-0.3,0-0.4,0c-0.1,0-0.3,0-0.4,0c-0.3,0-0.6,0.1-0.9,0.2c-0.3,0.1-0.5,0.3-0.7,0.5
		c-0.2,0.2-0.3,0.4-0.4,0.6s-0.2,0.4-0.2,0.7c0,0.2-0.1,0.5-0.1,0.7c0,0.2,0,0.5,0,0.7v3.8H457v-8.5h1.3l0.1,1.5
		c0.2-0.5,0.6-0.9,1-1.2c0.5-0.3,1-0.4,1.5-0.4c0.2,0,0.4,0,0.7,0V330.5z"/>
	<path d="M471,333.4c0,0.7-0.1,1.4-0.3,2.1c-0.2,0.6-0.5,1.2-1,1.6c-0.3,0.3-0.6,0.5-1,0.6c-0.4,0.2-0.8,0.2-1.3,0.2
		c-0.2,0-0.5,0-0.7-0.1s-0.5-0.1-0.7-0.2c-0.2-0.1-0.4-0.2-0.6-0.4c-0.2-0.2-0.3-0.3-0.4-0.5v4.6h-1.4v-12.1h1.3l0.1,1.1
		c0.2-0.4,0.6-0.8,1.1-1c0.5-0.2,1-0.3,1.4-0.3c0.5,0,1,0.1,1.4,0.2c0.4,0.2,0.7,0.4,1,0.7c0.4,0.4,0.7,0.9,0.9,1.5
		C470.8,332,471,332.7,471,333.4z M469.5,333.4c0-0.4,0-0.8-0.1-1.2c-0.1-0.4-0.2-0.7-0.4-1c-0.2-0.3-0.4-0.6-0.7-0.8
		c-0.3-0.2-0.7-0.3-1.2-0.3c-0.3,0-0.6,0.1-0.8,0.2c-0.2,0.1-0.4,0.2-0.6,0.4c-0.4,0.3-0.6,0.7-0.7,1.2c-0.1,0.5-0.2,1-0.2,1.5
		s0.1,1,0.2,1.5c0.1,0.5,0.4,0.9,0.7,1.2c0.2,0.2,0.4,0.3,0.6,0.4c0.2,0.1,0.5,0.2,0.8,0.2c0.5,0,0.9-0.1,1.2-0.3
		c0.3-0.2,0.6-0.4,0.7-0.8s0.3-0.7,0.4-1C469.5,334.2,469.5,333.8,469.5,333.4z"/>
	<path d="M480.3,333.4c0,0.7-0.1,1.3-0.3,1.9s-0.5,1.1-1,1.6c-0.3,0.3-0.7,0.5-1.1,0.7c-0.4,0.2-0.9,0.3-1.4,0.3
		c-0.5,0-1-0.1-1.4-0.3c-0.4-0.2-0.8-0.4-1.1-0.7c-0.5-0.5-0.8-1-1-1.6s-0.3-1.2-0.3-1.9c0-0.7,0.1-1.3,0.3-1.9
		c0.2-0.6,0.5-1.1,1-1.6c0.3-0.3,0.7-0.5,1.1-0.7c0.4-0.2,0.9-0.3,1.4-0.3c0.5,0,1,0.1,1.4,0.3c0.4,0.2,0.8,0.4,1.1,0.7
		c0.5,0.5,0.8,1,1,1.6C480.2,332.1,480.3,332.7,480.3,333.4z M478.8,333.4c0-0.5-0.1-1-0.2-1.5c-0.1-0.5-0.3-0.9-0.6-1.2
		c-0.2-0.2-0.4-0.3-0.6-0.4c-0.3-0.1-0.5-0.2-0.9-0.2c-0.3,0-0.6,0.1-0.9,0.2c-0.3,0.1-0.5,0.3-0.6,0.4c-0.3,0.3-0.5,0.7-0.6,1.2
		c-0.1,0.5-0.2,1-0.2,1.5c0,0.5,0.1,1,0.2,1.5c0.1,0.5,0.3,0.9,0.6,1.2c0.2,0.2,0.4,0.3,0.6,0.4c0.3,0.1,0.5,0.2,0.9,0.2
		c0.3,0,0.6-0.1,0.9-0.2c0.3-0.1,0.5-0.3,0.6-0.4c0.3-0.3,0.5-0.7,0.6-1.2C478.8,334.4,478.8,333.9,478.8,333.4z"/>
	<path d="M489,335.2c0,0.4-0.1,0.7-0.2,1c-0.1,0.3-0.3,0.5-0.5,0.7c-0.3,0.3-0.7,0.6-1.2,0.7c-0.5,0.2-1,0.2-1.6,0.2
		c-0.5,0-1-0.1-1.5-0.2c-0.5-0.1-0.9-0.4-1.2-0.7c-0.3-0.3-0.5-0.6-0.6-0.9c-0.1-0.3-0.2-0.7-0.2-1h1.4c0,0.3,0.1,0.5,0.2,0.8
		c0.1,0.2,0.3,0.4,0.5,0.6c0.2,0.1,0.4,0.2,0.7,0.3c0.3,0.1,0.6,0.1,0.8,0.1c0.3,0,0.6,0,0.8-0.1c0.3-0.1,0.5-0.2,0.7-0.4
		c0.1-0.1,0.2-0.2,0.3-0.4c0.1-0.2,0.1-0.3,0.1-0.5c0-0.3-0.1-0.6-0.3-0.8c-0.2-0.2-0.6-0.3-1-0.4c-0.1,0-0.2,0-0.4-0.1
		c-0.2,0-0.3,0-0.5-0.1s-0.4,0-0.5-0.1c-0.2,0-0.3,0-0.5-0.1c-0.6-0.1-1.1-0.3-1.5-0.7c-0.4-0.4-0.6-0.9-0.6-1.5
		c0-0.3,0.1-0.6,0.2-0.9c0.1-0.3,0.3-0.5,0.5-0.7c0.3-0.3,0.6-0.5,1.1-0.7c0.4-0.2,0.9-0.3,1.4-0.3c0.6,0,1.1,0.1,1.6,0.3
		c0.5,0.2,0.8,0.4,1.1,0.8c0.2,0.2,0.3,0.5,0.4,0.7c0.1,0.3,0.2,0.6,0.2,0.9h-1.4c0-0.2-0.1-0.4-0.2-0.6c-0.1-0.2-0.2-0.3-0.3-0.4
		c-0.3-0.3-0.8-0.5-1.4-0.5c-0.2,0-0.3,0-0.5,0c-0.1,0-0.3,0.1-0.5,0.2c-0.3,0.1-0.5,0.3-0.6,0.5c-0.1,0.2-0.2,0.4-0.2,0.7
		c0,0.4,0.1,0.6,0.3,0.8s0.5,0.3,0.8,0.3c0.2,0,0.5,0.1,0.9,0.1c0.3,0,0.7,0.1,1.2,0.2c0.6,0.1,1.1,0.4,1.5,0.8
		C488.8,334,489,334.5,489,335.2z"/>
	<path d="M498.3,333.8h-6c0,0.4,0.1,0.8,0.2,1.2c0.1,0.4,0.3,0.7,0.6,1c0.4,0.4,0.9,0.6,1.6,0.6c0.7,0,1.2-0.2,1.6-0.6
		c0.1-0.1,0.2-0.3,0.3-0.4c0.1-0.1,0.1-0.3,0.2-0.5h1.4c-0.1,0.4-0.2,0.8-0.4,1.2c-0.2,0.4-0.5,0.7-0.9,0.9c-0.3,0.2-0.6,0.4-1,0.5
		c-0.4,0.1-0.8,0.2-1.2,0.2c-0.6,0-1.1-0.1-1.6-0.3c-0.5-0.2-0.9-0.5-1.2-0.9c-0.4-0.4-0.6-0.9-0.8-1.4c-0.2-0.5-0.3-1.1-0.3-1.7
		c0-0.5,0-1,0.2-1.4c0.1-0.5,0.3-0.9,0.5-1.3c0.3-0.5,0.7-0.9,1.3-1.3c0.5-0.3,1.2-0.5,1.9-0.5c0.5,0,1,0.1,1.5,0.3
		c0.4,0.2,0.8,0.5,1.1,0.8c0.3,0.4,0.6,0.8,0.8,1.3c0.2,0.5,0.3,1.1,0.3,1.6L498.3,333.8z M496.9,332.6c0-0.3,0-0.6-0.1-0.9
		c-0.1-0.3-0.2-0.6-0.4-0.8c-0.2-0.2-0.4-0.4-0.7-0.6c-0.3-0.1-0.6-0.2-1-0.2c-0.4,0-0.7,0.1-1,0.2c-0.3,0.1-0.5,0.3-0.7,0.6
		c-0.2,0.2-0.3,0.5-0.4,0.8c-0.1,0.3-0.1,0.6-0.2,0.9H496.9z"/>
	<path d="M500.3,333.2v-1.3h5v1.3H500.3z"/>
	<path d="M510.8,337.6c-0.1,0-0.1,0-0.3,0c-0.2,0-0.4,0.1-0.8,0.1c-0.6,0-1.1-0.2-1.4-0.5c-0.3-0.4-0.4-0.9-0.4-1.5v-10.1h1.4v10
		c0,0.3,0.1,0.5,0.2,0.7c0.1,0.1,0.3,0.2,0.6,0.2h0.5c0,0,0.1,0,0.1,0V337.6z"/>
	<path d="M519.7,333.8h-6c0,0.4,0.1,0.8,0.2,1.2c0.1,0.4,0.3,0.7,0.6,1c0.4,0.4,0.9,0.6,1.6,0.6c0.7,0,1.2-0.2,1.6-0.6
		c0.1-0.1,0.2-0.3,0.3-0.4c0.1-0.1,0.1-0.3,0.2-0.5h1.4c-0.1,0.4-0.2,0.8-0.4,1.2c-0.2,0.4-0.5,0.7-0.9,0.9c-0.3,0.2-0.6,0.4-1,0.5
		c-0.4,0.1-0.8,0.2-1.2,0.2c-0.6,0-1.1-0.1-1.6-0.3c-0.5-0.2-0.9-0.5-1.2-0.9c-0.4-0.4-0.6-0.9-0.8-1.4c-0.2-0.5-0.3-1.1-0.3-1.7
		c0-0.5,0-1,0.2-1.4c0.1-0.5,0.3-0.9,0.5-1.3c0.3-0.5,0.7-0.9,1.3-1.3c0.5-0.3,1.2-0.5,1.9-0.5c0.5,0,1,0.1,1.5,0.3
		c0.4,0.2,0.8,0.5,1.1,0.8c0.3,0.4,0.6,0.8,0.8,1.3c0.2,0.5,0.3,1.1,0.3,1.6L519.7,333.8z M518.2,332.6c0-0.3,0-0.6-0.1-0.9
		c-0.1-0.3-0.2-0.6-0.4-0.8c-0.2-0.2-0.4-0.4-0.7-0.6c-0.3-0.1-0.6-0.2-1-0.2c-0.4,0-0.7,0.1-1,0.2c-0.3,0.1-0.5,0.3-0.7,0.6
		c-0.2,0.2-0.3,0.5-0.4,0.8c-0.1,0.3-0.1,0.6-0.2,0.9H518.2z"/>
	<path d="M527.7,337.6l-0.1-1.1c-0.2,0.4-0.6,0.8-1.1,1c-0.5,0.2-1,0.3-1.4,0.3c-0.5,0-1-0.1-1.4-0.2c-0.4-0.2-0.7-0.4-1-0.7
		c-0.4-0.4-0.7-0.9-0.9-1.5c-0.2-0.6-0.3-1.3-0.3-2c0-0.7,0.1-1.4,0.3-2.1c0.2-0.6,0.5-1.2,1-1.6c0.3-0.3,0.6-0.5,1-0.6
		c0.4-0.2,0.8-0.2,1.3-0.2c0.2,0,0.5,0,0.7,0.1c0.2,0.1,0.5,0.1,0.7,0.2c0.2,0.1,0.4,0.2,0.6,0.4c0.2,0.2,0.3,0.3,0.4,0.5v-4.6h1.4
		v12.1H527.7z M527.6,333.4c0-0.5-0.1-1-0.2-1.5c-0.1-0.5-0.4-0.9-0.7-1.2c-0.2-0.2-0.4-0.3-0.6-0.4c-0.2-0.1-0.5-0.2-0.8-0.2
		c-0.5,0-0.9,0.1-1.2,0.3c-0.3,0.2-0.6,0.4-0.7,0.8c-0.2,0.3-0.3,0.7-0.4,1c-0.1,0.4-0.1,0.8-0.1,1.2s0,0.8,0.1,1.2
		c0.1,0.4,0.2,0.7,0.4,1c0.2,0.3,0.4,0.6,0.7,0.8c0.3,0.2,0.7,0.3,1.2,0.3c0.3,0,0.6-0.1,0.8-0.2c0.2-0.1,0.4-0.2,0.6-0.4
		c0.4-0.3,0.6-0.7,0.7-1.2C527.5,334.4,527.6,333.9,527.6,333.4z"/>
	<path d="M543.4,333.4c0,0.7-0.1,1.4-0.3,2c-0.2,0.6-0.5,1.1-0.9,1.5c-0.3,0.3-0.6,0.5-1,0.7c-0.4,0.2-0.9,0.2-1.4,0.2
		c-0.5,0-1-0.1-1.4-0.3c-0.5-0.2-0.8-0.6-1.1-1l-0.1,1.1h-1.3v-12.1h1.4v4.6c0.1-0.2,0.3-0.4,0.4-0.5c0.2-0.2,0.4-0.3,0.6-0.4
		s0.5-0.2,0.7-0.2c0.2-0.1,0.5-0.1,0.7-0.1c0.5,0,0.9,0.1,1.3,0.2c0.4,0.2,0.7,0.4,1,0.6c0.4,0.4,0.7,0.9,1,1.6
		C543.3,332,543.4,332.7,543.4,333.4z M541.9,333.4c0-0.4,0-0.8-0.1-1.2c-0.1-0.4-0.2-0.7-0.4-1s-0.4-0.6-0.7-0.8
		c-0.3-0.2-0.7-0.3-1.2-0.3c-0.3,0-0.6,0.1-0.8,0.2c-0.2,0.1-0.4,0.2-0.6,0.4c-0.4,0.3-0.6,0.7-0.7,1.2c-0.1,0.5-0.2,1-0.2,1.5
		s0.1,1,0.2,1.5c0.1,0.5,0.4,0.9,0.7,1.2c0.2,0.2,0.4,0.3,0.6,0.4c0.2,0.1,0.5,0.2,0.8,0.2c0.5,0,0.9-0.1,1.2-0.3
		c0.3-0.2,0.6-0.4,0.7-0.8c0.2-0.3,0.3-0.7,0.4-1C541.9,334.2,541.9,333.8,541.9,333.4z"/>
	<path d="M551.2,337.6l-0.1-1.3c-0.2,0.5-0.6,0.9-1,1.1c-0.5,0.3-1,0.4-1.5,0.4c-1,0-1.7-0.3-2.2-0.8c-0.5-0.5-0.7-1.3-0.7-2.3v-5.6
		h1.4v5.4c0,0.6,0.1,1.1,0.4,1.5c0.3,0.4,0.7,0.5,1.4,0.5c0.3,0,0.5-0.1,0.8-0.2c0.2-0.1,0.4-0.3,0.6-0.5c0.3-0.3,0.5-0.6,0.6-1.1
		c0.1-0.4,0.2-0.9,0.2-1.3v-4.4h1.4v8.5H551.2z"/>
	<path d="M561.9,335.2c0,0.4-0.1,0.7-0.2,1c-0.1,0.3-0.3,0.5-0.5,0.7c-0.3,0.3-0.7,0.6-1.2,0.7c-0.5,0.2-1,0.2-1.6,0.2
		c-0.5,0-1-0.1-1.5-0.2c-0.5-0.1-0.9-0.4-1.2-0.7c-0.3-0.3-0.5-0.6-0.6-0.9c-0.1-0.3-0.2-0.7-0.2-1h1.4c0,0.3,0.1,0.5,0.2,0.8
		c0.1,0.2,0.3,0.4,0.5,0.6c0.2,0.1,0.4,0.2,0.7,0.3c0.3,0.1,0.6,0.1,0.8,0.1c0.3,0,0.6,0,0.8-0.1c0.3-0.1,0.5-0.2,0.7-0.4
		c0.1-0.1,0.2-0.2,0.3-0.4c0.1-0.2,0.1-0.3,0.1-0.5c0-0.3-0.1-0.6-0.3-0.8c-0.2-0.2-0.6-0.3-1-0.4c-0.1,0-0.2,0-0.4-0.1
		c-0.2,0-0.3,0-0.5-0.1s-0.4,0-0.5-0.1c-0.2,0-0.3,0-0.5-0.1c-0.6-0.1-1.1-0.3-1.5-0.7c-0.4-0.4-0.6-0.9-0.6-1.5
		c0-0.3,0.1-0.6,0.2-0.9c0.1-0.3,0.3-0.5,0.5-0.7c0.3-0.3,0.6-0.5,1.1-0.7c0.4-0.2,0.9-0.3,1.4-0.3c0.6,0,1.1,0.1,1.6,0.3
		s0.8,0.4,1.1,0.8c0.2,0.2,0.3,0.5,0.4,0.7c0.1,0.3,0.2,0.6,0.2,0.9h-1.4c0-0.2-0.1-0.4-0.2-0.6c-0.1-0.2-0.2-0.3-0.3-0.4
		c-0.3-0.3-0.8-0.5-1.4-0.5c-0.2,0-0.3,0-0.5,0c-0.1,0-0.3,0.1-0.5,0.2c-0.3,0.1-0.5,0.3-0.6,0.5c-0.1,0.2-0.2,0.4-0.2,0.7
		c0,0.4,0.1,0.6,0.3,0.8c0.2,0.2,0.5,0.3,0.8,0.3c0.2,0,0.5,0.1,0.9,0.1c0.3,0,0.7,0.1,1.2,0.2c0.6,0.1,1.1,0.4,1.5,0.8
		C561.7,334,561.9,334.5,561.9,335.2z"/>
	<path d="M564.2,327.2v-1.7h1.7v1.7H564.2z M564.3,337.6v-8.5h1.5v8.5H564.3z"/>
	<path d="M574.3,337.6v-5.4c0-0.6-0.1-1.1-0.4-1.5c-0.3-0.4-0.8-0.5-1.4-0.5c-0.4,0-0.8,0.1-1.1,0.4c-0.3,0.2-0.6,0.6-0.8,0.9
		c-0.1,0.3-0.2,0.7-0.3,1.1c0,0.4,0,0.8,0,1.1v3.9h-1.4v-8.5h1.2l0.1,1.3c0.1-0.2,0.3-0.5,0.5-0.6c0.2-0.2,0.4-0.3,0.6-0.5
		c0.2-0.1,0.5-0.2,0.7-0.3c0.3-0.1,0.5-0.1,0.7-0.1c1,0,1.7,0.3,2.2,0.8c0.5,0.5,0.7,1.3,0.7,2.3v5.6H574.3z"/>
	<path d="M585.5,333.8h-6c0,0.4,0.1,0.8,0.2,1.2c0.1,0.4,0.3,0.7,0.6,1c0.4,0.4,0.9,0.6,1.6,0.6c0.7,0,1.2-0.2,1.6-0.6
		c0.1-0.1,0.2-0.3,0.3-0.4c0.1-0.1,0.1-0.3,0.2-0.5h1.4c-0.1,0.4-0.2,0.8-0.4,1.2c-0.2,0.4-0.5,0.7-0.9,0.9c-0.3,0.2-0.6,0.4-1,0.5
		c-0.4,0.1-0.8,0.2-1.2,0.2c-0.6,0-1.1-0.1-1.6-0.3c-0.5-0.2-0.9-0.5-1.2-0.9c-0.4-0.4-0.6-0.9-0.8-1.4c-0.2-0.5-0.3-1.1-0.3-1.7
		c0-0.5,0-1,0.2-1.4c0.1-0.5,0.3-0.9,0.5-1.3c0.3-0.5,0.7-0.9,1.3-1.3c0.5-0.3,1.2-0.5,1.9-0.5c0.5,0,1,0.1,1.5,0.3
		c0.4,0.2,0.8,0.5,1.1,0.8c0.3,0.4,0.6,0.8,0.8,1.3c0.2,0.5,0.3,1.1,0.3,1.6L585.5,333.8z M584.1,332.6c0-0.3,0-0.6-0.1-0.9
		c-0.1-0.3-0.2-0.6-0.4-0.8c-0.2-0.2-0.4-0.4-0.7-0.6c-0.3-0.1-0.6-0.2-1-0.2c-0.4,0-0.7,0.1-1,0.2c-0.3,0.1-0.5,0.3-0.7,0.6
		c-0.2,0.2-0.3,0.5-0.4,0.8c-0.1,0.3-0.1,0.6-0.2,0.9H584.1z"/>
	<path d="M594.2,335.2c0,0.4-0.1,0.7-0.2,1c-0.1,0.3-0.3,0.5-0.5,0.7c-0.3,0.3-0.7,0.6-1.2,0.7c-0.5,0.2-1,0.2-1.6,0.2
		c-0.5,0-1-0.1-1.5-0.2c-0.5-0.1-0.9-0.4-1.2-0.7c-0.3-0.3-0.5-0.6-0.6-0.9c-0.1-0.3-0.2-0.7-0.2-1h1.4c0,0.3,0.1,0.5,0.2,0.8
		c0.1,0.2,0.3,0.4,0.5,0.6c0.2,0.1,0.4,0.2,0.7,0.3c0.3,0.1,0.6,0.1,0.8,0.1c0.3,0,0.6,0,0.8-0.1c0.3-0.1,0.5-0.2,0.7-0.4
		c0.1-0.1,0.2-0.2,0.3-0.4c0.1-0.2,0.1-0.3,0.1-0.5c0-0.3-0.1-0.6-0.3-0.8c-0.2-0.2-0.6-0.3-1-0.4c-0.1,0-0.2,0-0.4-0.1
		c-0.2,0-0.3,0-0.5-0.1s-0.4,0-0.5-0.1c-0.2,0-0.3,0-0.5-0.1c-0.6-0.1-1.1-0.3-1.5-0.7c-0.4-0.4-0.6-0.9-0.6-1.5
		c0-0.3,0.1-0.6,0.2-0.9c0.1-0.3,0.3-0.5,0.5-0.7c0.3-0.3,0.6-0.5,1.1-0.7c0.4-0.2,0.9-0.3,1.4-0.3c0.6,0,1.1,0.1,1.6,0.3
		c0.5,0.2,0.8,0.4,1.1,0.8c0.2,0.2,0.3,0.5,0.4,0.7c0.1,0.3,0.2,0.6,0.2,0.9h-1.4c0-0.2-0.1-0.4-0.2-0.6c-0.1-0.2-0.2-0.3-0.3-0.4
		c-0.3-0.3-0.8-0.5-1.4-0.5c-0.2,0-0.3,0-0.5,0c-0.1,0-0.3,0.1-0.5,0.2c-0.3,0.1-0.5,0.3-0.6,0.5c-0.1,0.2-0.2,0.4-0.2,0.7
		c0,0.4,0.1,0.6,0.3,0.8c0.2,0.2,0.5,0.3,0.8,0.3c0.2,0,0.5,0.1,0.9,0.1c0.3,0,0.7,0.1,1.2,0.2c0.6,0.1,1.1,0.4,1.5,0.8
		C594,334,594.2,334.5,594.2,335.2z"/>
	<path d="M602.9,335.2c0,0.4-0.1,0.7-0.2,1c-0.1,0.3-0.3,0.5-0.5,0.7c-0.3,0.3-0.7,0.6-1.2,0.7c-0.5,0.2-1,0.2-1.6,0.2
		c-0.5,0-1-0.1-1.5-0.2c-0.5-0.1-0.9-0.4-1.2-0.7c-0.3-0.3-0.5-0.6-0.6-0.9c-0.1-0.3-0.2-0.7-0.2-1h1.4c0,0.3,0.1,0.5,0.2,0.8
		c0.1,0.2,0.3,0.4,0.5,0.6c0.2,0.1,0.4,0.2,0.7,0.3c0.3,0.1,0.6,0.1,0.8,0.1c0.3,0,0.6,0,0.8-0.1c0.3-0.1,0.5-0.2,0.7-0.4
		c0.1-0.1,0.2-0.2,0.3-0.4c0.1-0.2,0.1-0.3,0.1-0.5c0-0.3-0.1-0.6-0.3-0.8c-0.2-0.2-0.6-0.3-1-0.4c-0.1,0-0.2,0-0.4-0.1
		c-0.2,0-0.3,0-0.5-0.1c-0.2,0-0.4,0-0.5-0.1c-0.2,0-0.3,0-0.5-0.1c-0.6-0.1-1.1-0.3-1.5-0.7c-0.4-0.4-0.6-0.9-0.6-1.5
		c0-0.3,0.1-0.6,0.2-0.9c0.1-0.3,0.3-0.5,0.5-0.7c0.3-0.3,0.6-0.5,1.1-0.7c0.4-0.2,0.9-0.3,1.4-0.3c0.6,0,1.1,0.1,1.6,0.3
		s0.8,0.4,1.1,0.8c0.2,0.2,0.3,0.5,0.4,0.7c0.1,0.3,0.2,0.6,0.2,0.9h-1.4c0-0.2-0.1-0.4-0.2-0.6c-0.1-0.2-0.2-0.3-0.3-0.4
		c-0.3-0.3-0.8-0.5-1.4-0.5c-0.2,0-0.3,0-0.5,0c-0.1,0-0.3,0.1-0.5,0.2c-0.3,0.1-0.5,0.3-0.6,0.5c-0.1,0.2-0.2,0.4-0.2,0.7
		c0,0.4,0.1,0.6,0.3,0.8c0.2,0.2,0.5,0.3,0.8,0.3c0.2,0,0.5,0.1,0.9,0.1c0.3,0,0.7,0.1,1.2,0.2c0.6,0.1,1.1,0.4,1.5,0.8
		C602.7,334,602.9,334.5,602.9,335.2z"/>
	<path d="M612.2,333.8h-6c0,0.4,0.1,0.8,0.2,1.2c0.1,0.4,0.3,0.7,0.6,1c0.4,0.4,0.9,0.6,1.6,0.6c0.7,0,1.2-0.2,1.6-0.6
		c0.1-0.1,0.2-0.3,0.3-0.4c0.1-0.1,0.1-0.3,0.2-0.5h1.4c-0.1,0.4-0.2,0.8-0.4,1.2c-0.2,0.4-0.5,0.7-0.9,0.9c-0.3,0.2-0.6,0.4-1,0.5
		c-0.4,0.1-0.8,0.2-1.2,0.2c-0.6,0-1.1-0.1-1.6-0.3c-0.5-0.2-0.9-0.5-1.2-0.9c-0.4-0.4-0.6-0.9-0.8-1.4c-0.2-0.5-0.3-1.1-0.3-1.7
		c0-0.5,0-1,0.2-1.4c0.1-0.5,0.3-0.9,0.5-1.3c0.3-0.5,0.7-0.9,1.3-1.3c0.5-0.3,1.2-0.5,1.9-0.5c0.5,0,1,0.1,1.5,0.3
		c0.4,0.2,0.8,0.5,1.1,0.8c0.3,0.4,0.6,0.8,0.8,1.3c0.2,0.5,0.3,1.1,0.3,1.6L612.2,333.8z M610.8,332.6c0-0.3,0-0.6-0.1-0.9
		c-0.1-0.3-0.2-0.6-0.4-0.8c-0.2-0.2-0.4-0.4-0.7-0.6c-0.3-0.1-0.6-0.2-1-0.2c-0.4,0-0.7,0.1-1,0.2c-0.3,0.1-0.5,0.3-0.7,0.6
		c-0.2,0.2-0.3,0.5-0.4,0.8c-0.1,0.3-0.1,0.6-0.2,0.9H610.8z"/>
	<path d="M620.9,335.2c0,0.4-0.1,0.7-0.2,1c-0.1,0.3-0.3,0.5-0.5,0.7c-0.3,0.3-0.7,0.6-1.2,0.7c-0.5,0.2-1,0.2-1.6,0.2
		c-0.5,0-1-0.1-1.5-0.2c-0.5-0.1-0.9-0.4-1.2-0.7c-0.3-0.3-0.5-0.6-0.6-0.9c-0.1-0.3-0.2-0.7-0.2-1h1.4c0,0.3,0.1,0.5,0.2,0.8
		c0.1,0.2,0.3,0.4,0.5,0.6c0.2,0.1,0.4,0.2,0.7,0.3c0.3,0.1,0.6,0.1,0.8,0.1c0.3,0,0.6,0,0.8-0.1c0.3-0.1,0.5-0.2,0.7-0.4
		c0.1-0.1,0.2-0.2,0.3-0.4c0.1-0.2,0.1-0.3,0.1-0.5c0-0.3-0.1-0.6-0.3-0.8c-0.2-0.2-0.6-0.3-1-0.4c-0.1,0-0.2,0-0.4-0.1
		c-0.2,0-0.3,0-0.5-0.1s-0.4,0-0.5-0.1c-0.2,0-0.3,0-0.5-0.1c-0.6-0.1-1.1-0.3-1.5-0.7c-0.4-0.4-0.6-0.9-0.6-1.5
		c0-0.3,0.1-0.6,0.2-0.9c0.1-0.3,0.3-0.5,0.5-0.7c0.3-0.3,0.6-0.5,1.1-0.7c0.4-0.2,0.9-0.3,1.4-0.3c0.6,0,1.1,0.1,1.6,0.3
		s0.8,0.4,1.1,0.8c0.2,0.2,0.3,0.5,0.4,0.7c0.1,0.3,0.2,0.6,0.2,0.9h-1.4c0-0.2-0.1-0.4-0.2-0.6c-0.1-0.2-0.2-0.3-0.3-0.4
		c-0.3-0.3-0.8-0.5-1.4-0.5c-0.2,0-0.3,0-0.5,0c-0.1,0-0.3,0.1-0.5,0.2c-0.3,0.1-0.5,0.3-0.6,0.5c-0.1,0.2-0.2,0.4-0.2,0.7
		c0,0.4,0.1,0.6,0.3,0.8c0.2,0.2,0.5,0.3,0.8,0.3c0.2,0,0.5,0.1,0.9,0.1c0.3,0,0.7,0.1,1.2,0.2c0.6,0.1,1.1,0.4,1.5,0.8
		C620.7,334,620.9,334.5,620.9,335.2z"/>
</g>
<g>
	<g>
		<path d="M253.6,283.8h1.7l0-0.5c0.2-2,0.6-4.1,1.3-6.2c0.7-2,1.6-3.9,2.7-5.5c1-1.6,2.2-2.9,3.4-3.9c1-0.8,2-1.3,3-1.4v31.9
			c0,0.7,0,1.4-0.1,2.1c-0.1,0.6-0.2,1.1-0.5,1.6c-0.3,0.5-0.8,0.9-1.4,1.2c-0.6,0.3-1.6,0.6-2.7,0.7l-0.5,0v1.7h26.3v-1.7l-0.5,0
			c-1.2-0.1-2.1-0.3-2.7-0.7c-0.6-0.3-1.1-0.7-1.4-1.2c-0.3-0.5-0.5-1-0.5-1.6c-0.1-0.7-0.1-1.4-0.1-2.1v-31.9c1,0.1,2,0.6,3,1.4
			c1.2,1,2.4,2.3,3.4,3.9c1,1.6,1.9,3.4,2.6,5.5c0.7,2,1.1,4.1,1.3,6.2l0,0.5h1.7v-19.6h-39.9V283.8z"/>
		<path d="M346.3,279.1c0,0,2.6,0,2.6,2.7v12.1c0,5.3-1.4,8.7-3.5,8.7c-3.3,0-3.1-5.5-3.1-10.1l0-10.7h0c0-2.7,2.6-2.7,2.6-2.7v-1.6
			h-19l0,1.6c0,0,3.5,0,3.5,2.7c0,0,0,9.7,0,9.8c0,8.8,1,14.6,11.8,14.6c4.7,0,6.2-1.8,7.6-3.7v3.1l16.2,0v-1.5c0,0-3.5,0.2-3.5-2.6
			v-19.7c0-2.6,3.5-2.6,3.5-2.6v-1.5h-18.8V279.1z"/>
		<path d="M384.6,304.2c-4.9,0.5-6.4-3.4-6.4-7.2c0-3.1,0-6.1,0-6.1h18.9c0,0-0.4-14-15.8-14c-8.7,0-15.8,6.6-15.8,14.6
			c0,6.3,4.9,16,19.2,14.5c11.3-1.2,12.4-11.8,12.4-11.8l-1.8,0C395.4,294.2,394.4,303.1,384.6,304.2z M378.2,281.9
			c0-1.8,1.4-3.3,3.1-3.3c1.7,0,3.1,1.5,3.1,3.3l0,7.3h-6.1V281.9z"/>
		<path d="M317.8,276.8c-2.3,0-4.4,1.2-5.9,3.2v-2.5l-16.3,0v1.5c0,0,3.5-0.1,3.5,2.7l0,19.7c0,2.6-3.5,2.6-3.5,2.6v1.5h19.8V304
			c0,0-3.5,0-3.5-2.6l0-16c0-3.8,2.7-6.7,5.9-6.7c0.1,0,0.1,0,0.2,0c-2.3,0.8-3.9,3-3.9,5.7c0,3.3,2.5,6,5.6,6c3.1,0,5.6-2.7,5.6-6
			C325.3,279.3,321,276.8,317.8,276.8z"/>
		<path d="M503.4,276.9c-2.3,0-4.4,1.2-5.8,3.2v-2.5l-16.2,0v1.5c0,0,3.5-0.1,3.5,2.7l0,19.7c0,2.6-3.5,2.6-3.5,2.6v1.5h19.7v-1.5
			c0,0-3.5,0-3.5-2.6l0-16c0-3.8,2.7-6.7,5.8-6.7c0.1,0-3.6,1.8-3.7,5.7c-0.1,3.3,2.5,6,5.6,6c3.1,0,5.5-2.7,5.6-6
			C510.8,279.4,506.5,276.9,503.4,276.9z"/>
		<path d="M450.1,264.9l0.3,0v-1.2H432v1.2l0.3,0c1.1,0.1,2.1,0.4,3.1,0.9c1,0.5,1.8,1.2,2.6,2.1c0.7,0.9,1.3,2.1,1.7,3.4
			c0.4,1.4,0.6,3.1,0.6,5V290l-16.5-26.4h-23.2v1.2l0.3,0c2.2,0.2,3.9,0.9,5.1,2.2c1.2,1.3,1.8,2.8,1.8,4.6v21.2
			c0,1.9-0.2,3.6-0.6,5c-0.4,1.4-1,2.5-1.7,3.4c-0.7,0.9-1.6,1.6-2.6,2.1c-1,0.5-2,0.8-3.1,0.9l-0.3,0v1.2h19.2v-1.2l-0.3,0
			c-1.1-0.1-2.2-0.4-3.3-0.9c-1-0.5-1.9-1.2-2.7-2.1c-0.8-0.9-1.4-2.1-1.9-3.5c-0.5-1.4-0.7-3.1-0.7-5v-19.3l19.8,32h12.6l0.1-29.2
			c0-2,0.2-3.7,0.6-5c0.4-1.4,0.9-2.5,1.6-3.4c0.7-0.9,1.5-1.6,2.4-2.1C448,265.3,449,265,450.1,264.9z"/>
		<path d="M475.6,280.9c-1.6-1.3-3.5-2.3-5.5-2.9c-4-1.3-8.2-1.4-12.5,0c-2,0.7-3.9,1.7-5.6,3c-1.7,1.3-3.1,2.8-4.1,4.6
			c-1,1.8-1.6,3.8-1.6,6c0,2.7,0.6,5,1.7,6.9c1.1,1.9,2.6,3.4,4.3,4.5c1.7,1.1,3.6,2,5.6,2.4c2,0.5,4,0.7,5.8,0.7
			c1.8,0,3.7-0.2,5.7-0.7c2-0.5,3.9-1.3,5.6-2.4c1.7-1.1,3.1-2.6,4.3-4.5c1.1-1.9,1.7-4.2,1.7-6.9c0-2.2-0.5-4.3-1.5-6.1
			C478.5,283.8,477.2,282.2,475.6,280.9z M467.3,299.7c0,0.6-0.1,1.3-0.2,1.9c-0.1,0.7-0.3,1.3-0.6,1.8c-0.3,0.5-0.6,0.9-1.1,1.3
			c-0.4,0.3-1,0.5-1.7,0.5c-0.7,0-1.3-0.2-1.8-0.5c-0.5-0.3-0.8-0.8-1.1-1.3c-0.3-0.5-0.5-1.1-0.6-1.8c-0.1-0.7-0.2-1.3-0.2-1.9
			v-16.5c0-1.6,0.3-2.9,0.9-3.9c0.6-0.9,1.4-1.4,2.7-1.4c1.2,0,2,0.5,2.6,1.4c0.6,1,0.9,2.3,0.9,3.9V299.7z"/>
		<path d="M532.1,298c0,1.6-0.2,3-0.6,4c-0.4,1-1,1.4-1.8,1.4c-0.4,0-0.7-0.2-0.8-0.6c-0.2-0.5-0.2-1.2-0.2-2v-21.9h4.3v-1.2h-4.3
			V265h-1.1v0.2c0,1.7-0.3,3.4-0.9,4.9c-0.6,1.5-1.4,2.8-2.5,3.9c-1.1,1.1-2.3,2-3.7,2.6c-1.4,0.6-2.9,0.9-4.6,0.9H512v1.2h3.5v20.9
			c0,1.1,0.2,2.1,0.7,2.9c0.5,0.8,1.1,1.5,1.9,2c0.8,0.5,1.7,0.9,2.8,1.1c1,0.2,2.2,0.3,3.4,0.3c1.4,0,2.7-0.1,3.8-0.3
			c1.1-0.2,2.1-0.7,2.9-1.3c0.8-0.6,1.4-1.4,1.8-2.5c0.4-1,0.6-2.4,0.6-4v-3h-1.3V298z"/>
		<path d="M558.1,301.3L558.1,301.3c0,2.7-2.7,2.7-2.7,2.7v1.6h19.1l0-1.6c0,0-3.5,0-3.5-2.7c0,0,0-9.7,0-9.9
			c0-8.9-4.6-14.7-11.8-14.7c-4.8,0-6.3,1.8-7.7,3.8v-14.6l-16.3,0v1.5c0,0,3.5-0.2,3.5,2.6v31.3c0,2.6-3.5,2.6-3.5,2.6v1.5h18.9
			v-1.5c0,0-2.6,0-2.6-2.7v-12.2c0-5.3,1.4-8.7,3.5-8.7c3.3,0,3.1,5.6,3.1,10.1L558.1,301.3z"/>
	</g>
	<path d="M525.8,233.1C525.8,233.1,525.8,233.1,525.8,233.1C525.8,233.1,525.8,233.1,525.8,233.1
		C525.8,233.1,525.8,233.1,525.8,233.1l0.3,0l14.6,2.3l-2.9,5c0,0,0,0,0,0c0,0,0,0,0,0c0,0,0,0,0,0c0,0,0,0,0,0c0,0,0,0,0,0
		c0,0,0,0,0,0c0,0,0,0,0,0c0,0,0,0,0,0l0.1-0.1l4.8-2.8l2.4,14.9c0,0,0,0,0,0c0,0,0,0,0,0c0,0,0,0,0,0c0,0,0,0,0,0c0,0,0,0,0,0
		c0,0,0,0,0,0c0,0,0,0,0,0c0,0,0,0,0,0v-0.3h0l2.4-14.7l5,2.9c0,0,0,0,0,0c0,0,0,0,0,0c0,0,0,0,0,0c0,0,0,0,0,0c0,0,0,0,0,0
		c0,0,0,0,0,0c0,0,0,0,0,0c0,0,0,0,0,0l-0.1-0.1l-2.8-4.8l14.9-2.4c0,0,0,0,0,0c0,0,0,0,0,0c0,0,0,0,0,0c0,0,0,0,0,0c0,0,0,0,0,0
		c0,0,0,0,0,0c0,0,0,0,0,0c0,0,0,0,0,0c0,0,0,0,0,0c0,0,0,0,0,0h-0.3l-14.7-2.4l2.9-5c0,0,0,0,0,0c0,0,0,0,0,0c0,0,0,0,0,0
		c0,0,0,0,0,0c0,0,0,0,0,0c0,0,0,0,0,0c0,0,0,0,0,0c0,0,0,0,0,0c0,0,0,0,0,0c0,0,0,0,0,0l-0.1,0.1l-4.8,2.8l-2.4-14.9c0,0,0,0,0,0
		c0,0,0,0,0,0c0,0,0,0,0,0c0,0,0,0,0,0c0,0,0,0,0,0c0,0,0,0,0,0c0,0,0,0,0,0c0,0,0,0,0,0c0,0,0,0,0,0c0,0,0,0,0,0v0.3l-2.4,14.6
		l-5-2.9c0,0,0,0,0,0c0,0,0,0,0,0c0,0,0,0,0,0c0,0,0,0,0,0c0,0,0,0,0,0c0,0,0,0,0,0c0,0,0,0,0,0c0,0,0,0,0,0c0,0,0,0,0,0
		c0,0,0,0,0,0l0.1,0.1l2.8,4.7L525.8,233.1C525.8,233.1,525.8,233.1,525.8,233.1C525.8,233.1,525.8,233.1,525.8,233.1
		C525.8,233.1,525.8,233.1,525.8,233.1C525.8,233.1,525.8,233.1,525.8,233.1C525.8,233.1,525.8,233.1,525.8,233.1
		C525.8,233.1,525.8,233.1,525.8,233.1z M552.4,226l-4.2,7.1h-2.9L552.4,226z M545.3,233.2l7.1,7.1l-4.7-2.8c0,0,0,0-0.1,0l-2.4-1.4
		V233.2z M538,240.2l4.2-7.1h2.9L538,240.2z M538.1,225.9l7.1,4.2v2.9L538.1,225.9z"/>
</g>
</svg>
